300 *2006* [BluRay][720p][ENG, POL]

General information:
Country: USA
Release: 9 December 2006 (Austin Butt-Numb-A-Thon) 
Genre: Action, Fantasy, War 
Director: Zack Snyder
Screenplay: Michael Gordon, Kurt Johnstad
Original Music: Tyler Bates 
Cinematography by: Larry Fong 
Duration: 1h 56mn
Language: English, Polish 
No Subtitles
Rating: 8.0/10 - 55156 votes 

Cast:
Gerard Butler  ...  King Leonidas  
Lena Headey  ...  Queen Gorgo  
Dominic West  ...  Theron  
David Wenham  ...  Dilios  
Vincent Regan  ...  Captain  
Michael Fassbender  ...  Stelios  
Tom Wisdom  ...  Astinos  
Andrew Pleavin  ...  Daxos  
Andrew Tiernan  ...  Ephialtes  
Rodrigo Santoro  ...  Xerxes  
Tyler Neitzel  ...  Leonidas at 15 yrs  
Stephen McHattie  ...  Loyalist  
Greg Kramer  ...  Ephor #1  
Alex Ivanovici  ...  Ephor #2  
Kelly Craig  ...  Oracle Girl  

Plot:
King Leonidas and a force of 300 men fight the Persians at Thermopylae in 480 B.C.

Specifications:
General
Format                           : Matroska
Overall bit rate                 : 10.0 Mbps

Video
Format                           : AVC
Format/Info                      : Advanced Video Codec
Format profile                   : High@L5.1
Format settings, CABAC           : Yes
Format settings, ReFrames        : 9 frames
Muxing mode                      : Container profile=Unknown@5.1
Codec ID                         : V_MPEG4/ISO/AVC
Duration                         : 1h 56mn
Bit rate                         : 8 130 Kbps
Width                            : 1 280 pixels
Height                           : 536 pixels
Display aspect ratio             : 2.35:1
Frame rate                       : 23.976 fps

Audio 1
Format                           : DTS
Format/Info                      : Digital Theater Systems
Codec ID                         : A_DTS
Bit rate mode                    : Constant
Bit rate                         : 1 510 Kbps
Channel(s)                       : 6 channels
Channel positions                : Front: L C R, Side: L R, LFE
Sampling rate                    : 48.0 KHz
Bit depth                        : 24 bits
Stream size                      : 1.23 GiB (15%)
Title                            : English

Audio 2
Format                           : AC-3
Format/Info                      : Audio Coding 3
Mode extension                   : CM (complete main)
Codec ID                         : A_AC3
Bit rate mode                    : Constant
Bit rate                         : 384 Kbps
Channel(s)                       : 6 channels
Channel positions                : Front: L C R, Side: L R, LFE
Sampling rate                    : 48.0 KHz
Bit depth                        : 16 bits
Stream size                      : 320 MiB (4%)
Title                            : Polish
